Coordinates
version=1
nRows=24
nColumns=22
inDegrees=yes

Units are S.I. units (second, meters, Newtons, ...)
If the header above contains a line with 'inDegrees', this indicates whether rotational values are in degrees (yes) or radians (no).

endheader
time	pelvis_tilt	pelvis_list	pelvis_rotation	pelvis_tx	pelvis_ty	pelvis_tz	hip_flexion_r	hip_adduction_r	hip_rotation_r	knee_angle_r	ankle_angle_r	subtalar_angle_r	hip_flexion_l	hip_adduction_l	hip_rotation_l	knee_angle_l	ankle_angle_l	subtalar_angle_l	lumbar_extension	lumbar_bending	lumbar_rotation
      1.45000000	     -5.33737994	     -7.10314912	      5.47220851	     -1.04388915	      0.97135667	     -0.23623474	      7.70420408	      9.05830874	     -7.60867772	    -15.24216942	     12.19183800	     -0.56575909	      8.29934172	     -9.62425357	      6.61085003	    -14.10677868	     13.75035901	      2.94005494	      0.85211671	      6.88593643	     -6.48903246
      1.46000000	     -5.36314196	     -7.18603414	      5.42992808	     -1.04251760	      0.97103300	     -0.23497588	      7.57821346	      9.23461842	     -7.57160568	    -15.11319219	     12.24642335	     -0.56146208	      8.90192702	     -9.72794593	      6.67123307	    -15.24925708	     14.07703350	      3.15287005	      0.81711550	      6.96621847	     -6.47323481
      1.47000000	     -5.36024515	     -7.26694177	      5.39232592	     -1.04108524	      0.97069927	     -0.23375961	      7.43738159	      9.40636443	     -7.55187518	    -15.02264082	     12.33939710	     -0.56880016	      9.54893811	     -9.81911820	      6.75743308	    -16.52919066	     14.42634162	      3.39402864	      0.75271352	      7.04552761	     -6.45638160
      1.48000000	     -5.31677223	     -7.38432523	      5.36021409	     -1.03954878	      0.97039135	     -0.23256951	      7.23134913	      9.62487317	     -7.50867924	    -14.89364764	     12.38471543	     -0.56539410	     10.22068104	     -9.94327042	      6.86204559	    -17.92556172	     14.73222110	      3.51230610	      0.65354461	      7.16805383	     -6.43760889
      1.49000000	     -5.25477939	     -7.49844953	      5.33652579	     -1.03796038	      0.97006425	     -0.23144086	      7.02521254	      9.83564046	     -7.47797792	    -14.80787625	     12.45995638	     -0.57054699	     10.93656602	    -10.04879447	      7.00339253	    -19.43297363	     15.03211138	      3.63134298	      0.53518630	      7.28919774	     -6.42131482
      1.50000000	     -5.19437063	     -7.60109648	      5.32555817	     -1.03628242	      0.96971421	     -0.23038346	      6.81373149	     10.02942066	     -7.46868430	    -14.72066890	     12.55065794	     -0.58344473	     11.70172146	    -10.12367038	      7.17972962	    -21.01771404	     15.29063392	      3.76816186	      0.42708706	      7.39630952	     -6.39961517
      1.51000000	     -5.11012943	     -7.69912864	      5.31695460	     -1.03451716	      0.96937646	     -0.22938333	      6.57829624	     10.21794001	     -7.45729813	    -14.64660568	     12.65344283	     -0.59819562	     12.46781725	    -10.17824736	      7.38754014	    -22.63964898	     15.52227283	      3.87659034	      0.29496424	      7.50018636	     -6.36161039
      1.52000000	     -5.02097139	     -7.77227717	      5.31165483	     -1.03268004	      0.96905053	     -0.22846841	      6.33914663	     10.37507714	     -7.44696695	    -14.58952876	     12.76625852	     -0.61508498	     13.23957143	    -10.18261432	      7.63240743	    -24.26160796	     15.71343034	      3.98403536	      0.15852531	      7.58099532	     -6.31748664
      1.53000000	     -4.93967194	     -7.81285640	      5.30831332	     -1.03076584	      0.96873417	     -0.22764636	      6.10632471	     10.49051825	     -7.44200021	    -14.54476044	     12.89555399	     -0.63371025	     14.01077411	    -10.12483194	      7.91427961	    -25.83761862	     15.87018993	      4.11682071	      0.03323007	      7.62835264	     -6.25905715
      1.54000000	     -4.87189122	     -7.80891463	      5.29994574	     -1.02879058	      0.96844122	     -0.22692116	      5.88580160	     10.55124605	     -7.43421761	    -14.51422105	     13.04062510	     -0.65108140	     14.77031285	     -9.98903119	      8.22581108	    -27.32645891	     16.00173046	      4.30412401	     -0.08002592	      7.62953405	     -6.18700979
      1.55000000	     -4.80827812	     -7.75893226	      5.28159843	     -1.02674293	      0.96819506	     -0.22629770	      5.66661735	     10.55535594	     -7.41579540	    -14.49857702	     13.19748348	     -0.66039054	     15.48942720	     -9.77665252	      8.55628472	    -28.68402345	     16.13250212	      4.53494002	     -0.19162573	      7.58669063	     -6.09522765
      1.56000000	     -4.75943989	     -7.64958634	      5.23941995	     -1.02461067	      0.96800482	     -0.22575471	      5.44865854	     10.49194997	     -7.35526612	    -14.48449516	     13.36502197	     -0.65739987	     16.16293106	     -9.47926165	      8.87963692	    -29.87403724	     16.25577914	      4.90932841	     -0.29118532	      7.48087795	     -5.96940660
      1.57000000	     -4.71769560	     -7.49663553	      5.20258490	     -1.02239742	      0.96785478	     -0.22532608	      5.24100007	     10.36945538	     -7.33944488	    -14.49176158	     13.53234160	     -0.64862259	     16.79471026	     -9.11078767	      9.21132509	    -30.88758357	     16.40021554	      5.21015353	     -0.38295106	      7.33081376	     -5.84598522
      1.58000000	     -4.69166003	     -7.30587942	      5.13687554	     -1.02008875	      0.96775187	     -0.22492535	      5.03066826	     10.20647856	     -7.27306909	    -14.48653668	     13.70045430	     -0.62730085	     17.38674514	     -8.70066086	      9.49811561	    -31.71245614	     16.54105302	      5.61593402	     -0.46104995	      7.13714829	     -5.68377443
      1.59000000	     -4.66665478	     -7.13054534	      5.06480728	     -1.01768004	      0.96767994	     -0.22454375	      4.80205344	     10.06320070	     -7.16782797	    -14.45527136	     13.84818840	     -0.58430880	     17.95186082	     -8.31133831	      9.76069453	    -32.36923450	     16.70549715	      6.13617106	     -0.53394525	      6.96024188	     -5.51249045
      1.60000000	     -4.65000294	     -6.92536198	      4.98482195	     -1.01516854	      0.96762695	     -0.22418417	      4.57737310	      9.88433858	     -7.07538594	    -14.43223957	     14.00118912	     -0.55565662	     18.48654911	     -7.90238733	      9.97345995	    -32.84717128	     16.83211289	      6.53473037	     -0.59871957	      6.74606975	     -5.33009834
      1.61000000	     -4.62356607	     -6.71653945	      4.90221570	     -1.01254920	      0.96760416	     -0.22382898	      4.32799133	      9.70604082	     -6.95863148	    -14.39568937	     14.14366823	     -0.55747397	     18.97875642	     -7.50758512	     10.15445338	    -33.15439158	     16.89862065	      6.69208661	     -0.67415724	      6.52477013	     -5.14573965
      1.62000000	     -4.62618121	     -6.53261724	      4.80424682	     -1.00981994	      0.96752680	     -0.22340751	      4.10343947	      9.55361267	     -6.86894420	    -14.35351044	     14.27962436	     -0.54016306	     19.51075863	     -7.18259354	     10.22547765	    -33.35486625	     16.93291338	      6.94595518	     -0.71248733	      6.31856263	     -4.93042841
      1.63000000	     -4.59482306	     -6.41426291	      4.74273933	     -1.00697944	      0.96745341	     -0.22297395	      3.81024110	      9.48493847	     -6.75722803	    -14.24804889	     14.38837980	     -0.54446617	     20.02727981	     -6.94888527	     10.29810262	    -33.45763687	     16.91920688	      6.98242742	     -0.77927902	      6.18017720	     -4.77954079
      1.64000000	     -4.59954539	     -6.26589905	      4.63283372	     -1.00411024	      0.96732878	     -0.22250644	      3.58848065	      9.37750267	     -6.61317297	    -14.21673016	     14.50986521	     -0.55124533	     20.57279087	     -6.72421458	     10.25631506	    -33.45993551	     16.79802052	      6.98278647	     -0.82329074	      6.00713739	     -4.55788952
      1.65000000	     -4.59695134	     -6.16271182	      4.53836210	     -1.00114477	      0.96716235	     -0.22200274	      3.34911884	      9.32491482	     -6.47201863	    -14.16763346	     14.61959776	     -0.56607409	     21.13832028	     -6.57710182	     10.16968464	    -33.40329937	     16.60182790	      6.82657652	     -0.87104954	      5.87387449	     -4.35324867
      1.66000000	     -4.59437224	     -6.08237042	      4.44638784	     -0.99808026	      0.96693753	     -0.22150279	      3.10811471	      9.29497651	     -6.35955874	    -14.12207911	     14.75416784	     -0.60548227	     21.72247420	     -6.47895692	     10.02106233	    -33.29427497	     16.30614254	      6.27834580	     -0.91702912	      5.76520834	     -4.16805825
      1.67000000	     -4.58482976	     -6.02033233	      4.36564389	     -0.99493754	      0.96670169	     -0.22103841	      2.84941870	      9.28574592	     -6.24206246	    -14.06149808	     14.86348238	     -0.64547316	     22.30265166	     -6.40672460	      9.87558717	    -33.11769569	     15.89591292	      5.70807988	     -0.97292791	      5.67778216	     -3.98330216
      1.68000000	     -4.59691198	     -5.94926895	      4.24749937	     -0.99172782	      0.96640501	     -0.22055934	      2.61940620	      9.26391352	     -6.07600054	    -14.02617191	     14.97864431	     -0.68023564	     22.91075327	     -6.35275779	      9.64270771	    -32.90263538	     15.42422834	      5.23699552	     -1.01216616	      5.57894000	     -3.76610875
